<?xml version="1.0" standalone="no"?>
<!DOCTYPE svg PUBLIC "-//W3C//DTD SVG 20010904//EN"
 "http://www.w3.org/TR/2001/REC-SVG-20010904/DTD/svg10.dtd">
<svg version="1.0" xmlns="http://www.w3.org/2000/svg"
 width="366.000000pt" height="478.000000pt" viewBox="0 0 366.000000 478.000000"
 preserveAspectRatio="xMidYMid meet">

<g transform="translate(0.000000,478.000000) scale(0.100000,-0.100000)"
fill="#000000" stroke="none">
<path d="M160 4700 l0 -80 -80 0 -80 0 0 -2150 0 -2150 80 0 80 0 0 -75 0 -75
149 0 c82 0 156 -3 165 -6 12 -4 14 -16 9 -54 -3 -27 -3 -60 1 -74 l6 -26 228
2 227 3 1 65 c0 36 3 71 8 78 11 18 1741 18 1752 0 5 -7 8 -42 8 -78 l1 -65
228 -3 227 -2 0 74 c0 58 3 75 16 80 9 3 83 6 165 6 l149 0 0 75 0 75 -1670 0
-1670 0 0 1670 0 1670 1670 0 1670 0 0 -1664 c0 -1075 3 -1666 10 -1668 5 -2
41 -2 80 0 l70 4 0 2144 0 2144 -80 0 -80 0 0 80 0 80 -1670 0 -1670 0 0 -80z
m3340 -475 l0 -395 -1670 0 -1670 0 0 395 0 395 1670 0 1670 0 0 -395z"/>
<path d="M320 4220 l0 -240 475 0 475 0 0 240 0 240 -475 0 -475 0 0 -240z
m791 74 c3 -2 5 -36 5 -76 l-1 -73 -320 0 -320 0 -3 68 c-2 44 1 74 10 84 10
13 52 14 318 8 168 -4 308 -9 311 -11z"/>
<path d="M1752 4383 l3 -78 75 0 75 0 3 78 3 77 -81 0 -81 0 3 -77z"/>
<path d="M2230 4380 l0 -80 233 0 c129 0 236 2 238 4 2 2 3 38 1 80 l-4 76
-234 0 -234 0 0 -80z"/>
<path d="M2865 4437 c-4 -13 -5 -48 -3 -78 l3 -54 238 -3 237 -2 0 80 0 80
-235 0 -235 0 -5 -23z"/>
<path d="M1592 4223 l3 -78 75 0 75 0 3 78 3 77 -81 0 -81 0 3 -77z"/>
<path d="M1912 4223 l3 -78 75 0 75 0 3 78 3 77 -81 0 -81 0 3 -77z"/>
<path d="M1752 4063 l3 -78 75 0 75 0 3 78 3 77 -81 0 -81 0 3 -77z"/>
<path d="M2230 4060 l0 -80 237 2 237 3 -1 75 -1 75 -236 3 -236 2 0 -80z"/>
<path d="M2868 4133 c-2 -5 -4 -39 -3 -78 l0 -70 238 -3 237 -2 0 80 0 80
-234 0 c-129 0 -236 -3 -238 -7z"/>
<path d="M1437 3183 c-4 -3 -7 -39 -7 -79 l0 -73 -156 -3 -156 -3 -1 -75 -1
-75 157 -3 157 -3 0 81 0 80 400 0 400 0 0 -80 0 -80 155 0 155 0 0 80 0 80
-155 0 -154 0 -3 78 -3 77 -391 3 c-215 1 -393 -1 -397 -5z"/>
<path d="M954 2856 c-3 -8 -4 -43 -2 -78 l3 -63 78 -3 77 -3 0 81 0 80 -75 0
c-57 0 -77 -4 -81 -14z"/>
<path d="M2550 2790 l0 -80 75 0 75 0 0 80 0 80 -75 0 -75 0 0 -80z"/>
<path d="M794 2697 c-2 -7 -3 -78 -2 -157 l3 -145 78 -3 77 -3 0 161 0 160
-75 0 c-53 0 -77 -4 -81 -13z"/>
<path d="M1430 2631 l0 -80 -77 -3 -78 -3 -3 -77 -3 -78 -74 0 -75 0 -2 -390
c-2 -215 -1 -395 0 -400 2 -6 37 -10 77 -10 l74 0 3 -77 3 -78 78 -3 77 -3 0
-74 0 -75 400 0 401 0 -3 78 -3 77 -395 5 -395 5 -1 75 -1 75 -79 5 -79 5 -3
360 c-1 198 0 375 3 393 l6 32 79 0 80 0 -1 58 c-1 31 -1 67 0 80 l1 22 395 0
396 0 -3 78 -3 77 -397 3 -398 2 0 -79z"/>
<path d="M2705 2700 c-4 -6 -4 -78 0 -161 l8 -149 73 0 c90 0 86 -8 82 180
l-3 135 -77 3 c-47 2 -79 -1 -83 -8z"/>
<path d="M2226 2528 c-3 -13 -6 -49 -6 -80 l0 -58 80 0 80 0 1 -62 c1 -35 2
-70 3 -78 1 -12 18 -16 79 -18 l77 -3 0 81 0 80 -80 0 -80 0 0 80 0 80 -74 0
c-68 0 -74 -2 -80 -22z"/>
<path d="M638 2000 c-2 -215 -1 -395 0 -400 2 -6 37 -10 78 -10 l74 0 0 -155
0 -155 80 0 80 0 0 155 0 155 -80 0 -80 0 0 400 0 400 -75 0 -75 0 -2 -390z"/>
<path d="M2860 1995 l0 -395 -60 -1 c-33 -1 -66 -2 -72 -3 -10 -1 -15 -45 -22
-158 l-8 -157 -72 -3 -71 -3 -3 -77 -3 -78 78 0 78 0 -3 80 -3 79 83 3 83 3 2
150 2 150 76 3 75 3 0 399 0 400 -80 0 -80 0 0 -395z"/>
<path d="M2230 1990 l0 -240 74 0 74 0 6 -31 c8 -42 7 -91 -2 -106 -4 -7 -38
-13 -82 -15 l-75 -3 -3 -77 -3 -78 81 0 80 0 0 81 0 81 80 -4 80 -3 0 78 0 77
-80 0 -80 0 0 240 0 240 -75 0 -75 0 0 -240z"/>
<path d="M958 1195 l-3 -75 78 0 77 0 0 75 0 75 -74 0 -74 0 -4 -75z"/>
<path d="M1195 1110 l-80 -5 -3 -72 -4 -73 161 0 161 0 0 75 c0 64 -2 75 -17
76 -68 4 -150 4 -218 -1z"/>
<path d="M2243 1113 c-9 -3 -13 -29 -13 -79 l0 -74 -397 -2 -398 -3 -3 -77 -3
-78 401 0 400 0 0 80 0 80 155 0 155 0 0 80 0 80 -142 -1 c-79 0 -149 -3 -155
-6z"/>
<path d="M2710 560 l0 -80 315 0 315 0 0 80 0 80 -315 0 -315 0 0 -80z"/>
</g>
</svg>
